<svg id="direction" enable-background="new 0 0 300 300" height="512" viewBox="0 0 300 300" width="512" xmlns="http://www.w3.org/2000/svg"><g><path d="m148 220v-24h68c15.439 0 28-12.561 28-28s-12.561-28-28-28h-20v-64c0-15.439-12.561-28-28-28s-28 12.561-28 28v16h-68c-15.439 0-28 12.561-28 28s12.561 28 28 28h20v72c0 15.439 12.561 28 28 28s28-12.561 28-28zm0-144c0-11.027 8.973-20 20-20s20 8.973 20 20v64h-16.422c5.193-5.086 8.422-12.174 8.422-20 0-15.439-12.561-28-28-28h-4zm-96 44c0-11.027 8.973-20 20-20h80c11.027 0 20 8.973 20 20s-8.973 20-20 20c-2.209 0-4 1.791-4 4s1.791 4 4 4h64c11.027 0 20 8.973 20 20s-8.973 20-20 20h-80c-11.027 0-20-8.973-20-20s8.973-20 20-20c2.209 0 4-1.791 4-4s-1.791-4-4-4h-64c-11.027 0-20-8.973-20-20zm48 100v-72h16.422c-5.193 5.086-8.422 12.174-8.422 20 0 15.439 12.561 28 28 28h4v24c0 11.027-8.973 20-20 20s-20-8.973-20-20z"/><path d="m236 72c8.822 0 16-7.178 16-16s-7.178-16-16-16-16 7.178-16 16 7.178 16 16 16zm0-24c4.412 0 8 3.588 8 8s-3.588 8-8 8-8-3.588-8-8 3.588-8 8-8z"/><path d="m84 220v-16c0-2.209-1.791-4-4-4s-4 1.791-4 4v16c0 2.209 1.791 4 4 4s4-1.791 4-4z"/><path d="m86.342 234.068c-.865-2.033-3.215-2.979-5.248-2.111-2.031.865-2.977 3.215-2.111 5.248 2.336 5.48 6.006 10.395 10.613 14.209.746.617 1.65.918 2.549.918 1.15 0 2.293-.494 3.084-1.449 1.408-1.701 1.17-4.223-.531-5.633-3.63-3.004-6.518-6.869-8.356-11.182z"/><path d="m220.691 208h-16c-2.209 0-4 1.791-4 4s1.791 4 4 4h16c2.209 0 4-1.791 4-4s-1.791-4-4-4z"/><path d="m252 208h-15.309c-2.209 0-4 1.791-4 4s1.791 4 4 4h15.309c2.209 0 4-1.791 4-4s-1.791-4-4-4z"/><path d="m188.691 208h-16c-2.209 0-4 1.791-4 4s1.791 4 4 4h16c2.209 0 4-1.791 4-4s-1.791-4-4-4z"/><path d="m148.295 242.4c-3.178 3.479-7.18 6.174-11.576 7.793-2.072.764-3.135 3.064-2.371 5.137.596 1.617 2.127 2.619 3.754 2.619.459 0 .928-.08 1.383-.248 5.592-2.061 10.682-5.486 14.717-9.906 1.49-1.631 1.375-4.16-.256-5.65-1.634-1.491-4.165-1.372-5.651.255z"/><path d="m160 211.309c-2.209 0-4 1.791-4 4v7.225c0 2.594-.336 5.164-.998 7.639-.572 2.135.695 4.328 2.828 4.898.348.094.695.139 1.037.139 1.768 0 3.383-1.18 3.861-2.967.844-3.15 1.271-6.418 1.271-9.709v-7.225c.001-2.209-1.79-4-3.999-4z"/><path d="m122.344 252h-8.877c-2.1 0-4.195-.221-6.227-.658-2.178-.465-4.291.908-4.752 3.068-.465 2.16.91 4.287 3.068 4.752 2.584.557 5.246.838 7.91.838h8.877c2.209 0 4-1.791 4-4s-1.79-4-3.999-4z"/><path d="m222 98.529c2.501 0 4.53-2.028 4.53-4.529 0-2.502-2.028-4.53-4.53-4.53s-4.53 2.028-4.53 4.53c0 2.501 2.029 4.529 4.53 4.529z"/></g></svg>